<?xml version="1.0" encoding="utf-8"?>
<!-- Generator: Adobe Illustrator 28.3.0, SVG Export Plug-In . SVG Version: 6.00 Build 0)  -->
<svg version="1.1" id="Layer_1" xmlns="http://www.w3.org/2000/svg" xmlns:xlink="http://www.w3.org/1999/xlink" x="0px" y="0px"
	 viewBox="0 0 16 16" style="enable-background:new 0 0 16 16;" xml:space="preserve">
<style type="text/css">
	.st0{fill:#3276B5;}
</style>
<g>
	<circle class="st0" cx="8.1" cy="7.9" r="2.2"/>
	<path class="st0" d="M16,7.8h-2.9c0,0-1.3,4.6-5.2,4.5c-1.7,0-2.9-0.9-2.9-0.9s-0.4-0.5-0.8,0c-0.5,0.6,0,0.9,0,0.9
		s1.1,1.2,3.8,1.2c4.2,0,5.3-3.8,5.3-3.8H16V7.8 M0,7.5h2.9c0,0,1.3-4.6,5.2-4.5C9.8,3,11,4,11,4s0.4,0.5,0.8,0c0.5-0.6,0-0.9,0-0.9
		S10.7,1.8,8,1.8c-4.2,0-5.3,3.8-5.3,3.8H0V7.5"/>
</g>
</svg>
