<svg xmlns="http://www.w3.org/2000/svg" viewBox="0 0 182.52 182.52"><defs><style>.cls-1{fill:#fff;}.cls-2{fill:#ee6331;}.cls-3{fill:#447099;}</style></defs><g id="full-rgb"><path id="fullLogo-7" data-name="fullLogo" class="cls-1" d="M688.88,43.47h2.78L696,49.94l4.11-6.47h2.7V57h-3v-8.1l-3.51,5.38h-.79l-3.63-5.44V57h-3Z"/><polygon id="fullLogo-8" data-name="fullLogo" class="cls-2" points="38.03 73.11 46.16 69.52 82.91 53.28 90.93 49.74 179.72 10.51 179.72 57.83 143.82 73.11 135.7 69.52 173.24 53.54 173.24 20.47 98.95 53.28 90.93 56.83 54.33 73 46.21 76.59 20.31 88.03 20.31 96.52 45.81 107.79 53.93 111.38 91.5 127.97 99.47 131.49 173.24 164.08 173.24 130.66 136.1 114.86 144.22 111.27 179.72 126.38 179.72 174.04 91.53 135.07 83.56 131.55 45.76 114.86 37.64 111.27 13.82 100.74 13.82 83.81 38.03 73.11"/><polygon class="cls-2" points="99.2 92.1 135.65 76.59 127.52 73 82.64 92.1 127.92 111.38 136.04 107.79 99.2 92.1"/><polygon id="fullLogo-9" data-name="fullLogo" class="cls-3" points="45.81 107.79 53.93 111.38 90.93 95.63 82.65 92.1 45.81 107.79"/><polygon id="fullLogo-10" data-name="fullLogo" class="cls-3" points="54.33 73 46.21 76.59 82.65 92.1 90.93 88.58 54.33 73"/><polygon id="fullLogo-11" data-name="fullLogo" class="cls-3" points="143.82 73.11 135.7 69.52 98.95 53.28 90.93 49.74 2.14 10.51 2.14 57.83 38.03 73.11 46.16 69.52 8.62 53.54 8.62 20.47 82.91 53.28 90.93 56.83 127.53 73 135.65 76.59 161.55 88.03 161.55 96.52 136.05 107.79 127.93 111.38 90.36 127.97 82.39 131.49 8.62 164.08 8.62 130.66 45.76 114.86 37.64 111.27 2.14 126.38 2.14 174.04 90.33 135.07 98.3 131.55 136.1 114.86 144.22 111.27 168.04 100.74 168.04 83.81 143.82 73.11"/></g></svg>
