<?xml version="1.0" encoding="utf-8"?>
<!-- Generator: Adobe Illustrator 27.8.1, SVG Export Plug-In . SVG Version: 6.00 Build 0)  -->
<svg version="1.1" id="Layer_1" xmlns="http://www.w3.org/2000/svg" xmlns:xlink="http://www.w3.org/1999/xlink" x="0px" y="0px"
	 viewBox="0 0 52 52" enable-background="new 0 0 52 52" xml:space="preserve">
<g>
	<path fill="#d3d3d3" d="M41.5,38.6c-1.4,0.4-3.1,0.5-5.1,0.2c-2-0.3-4.2-0.9-6.7-1.9c-2.5-1-5.1-2.3-7.9-3.9c-2.8-1.6-5.2-3.2-7.3-4.9
		c-2.1-1.7-3.7-3.3-5-4.9c-1.3-1.6-2.1-3.1-2.4-4.5c-0.3-1.4-0.2-2.7,0.5-3.8c0.7-1.1,1.7-1.9,3.1-2.3c1.4-0.4,3.1-0.5,5.1-0.2
		c2,0.3,4.2,0.9,6.7,1.9s5.1,2.2,7.9,3.9c2.8,1.6,5.3,3.3,7.3,4.9c2.1,1.7,3.7,3.3,5,4.9c1.3,1.6,2.1,3.1,2.4,4.5
		c0.3,1.4,0.2,2.7-0.4,3.8C43.9,37.5,42.9,38.2,41.5,38.6z M7,32.5c0.3-1.4,1.2-2.9,2.4-4.5s2.9-3.2,5-4.9c2.1-1.7,4.5-3.3,7.3-4.9
		c2.8-1.6,5.4-2.9,7.9-3.9s4.7-1.6,6.7-1.9c2-0.3,3.7-0.2,5.1,0.2c1.4,0.4,2.4,1.2,3.1,2.3c0.6,1.1,0.8,2.4,0.5,3.8
		c-0.3,1.4-1.1,2.9-2.4,4.5c-1.2,1.6-2.9,3.2-5,4.9c-2.1,1.7-4.5,3.3-7.3,4.9c-2.8,1.6-5.4,2.9-7.9,3.9c-2.5,1-4.7,1.6-6.7,1.9
		c-2,0.3-3.7,0.2-5.1-0.2c-1.4-0.4-2.4-1.2-3.1-2.3C6.8,35.2,6.7,34,7,32.5z M41.8,31.3c-0.9-1.5-2.5-3.2-4.7-5
		c-2.2-1.8-5-3.7-8.2-5.6c-3.3-1.9-6.2-3.3-8.9-4.3c-2.7-1-4.9-1.5-6.7-1.5c-1.8,0-3,0.5-3.5,1.5c-0.6,1-0.4,2.2,0.5,3.8
		c0.9,1.5,2.5,3.2,4.7,5c2.2,1.8,4.9,3.7,8.2,5.5c3.3,1.9,6.3,3.4,9,4.4c2.7,1,4.9,1.5,6.7,1.5c1.8,0,2.9-0.5,3.5-1.5
		C42.8,34,42.7,32.8,41.8,31.3z M13.3,36.5c1.8,0,4-0.5,6.7-1.5c2.7-1,5.7-2.5,9-4.4c3.3-1.9,6-3.7,8.2-5.5c2.2-1.8,3.7-3.5,4.6-5
		c0.9-1.5,1.1-2.8,0.5-3.8c-0.6-1-1.8-1.5-3.5-1.5c-1.8,0-4,0.5-6.7,1.5c-2.7,1-5.6,2.4-8.9,4.3c-3.3,1.9-6.1,3.8-8.3,5.6
		c-2.2,1.8-3.8,3.5-4.7,5C9.3,32.8,9.2,34,9.7,35C10.3,36,11.5,36.5,13.3,36.5z M22.5,45.3c-1.1-1-2-2.5-2.7-4.3
		c-0.8-1.9-1.3-4.1-1.7-6.8c-0.4-2.6-0.6-5.6-0.6-8.8c0-3.2,0.2-6.2,0.6-8.8c0.4-2.6,1-4.9,1.7-6.7c0.8-1.9,1.7-3.3,2.7-4.3
		c1.1-1,2.2-1.5,3.5-1.5c1.3,0,2.5,0.5,3.5,1.5c1.1,1,2,2.5,2.7,4.3c0.8,1.9,1.3,4.1,1.7,6.7c0.4,2.6,0.6,5.5,0.6,8.8
		c0,3.2-0.2,6.2-0.6,8.8c-0.4,2.6-1,4.9-1.7,6.8c-0.8,1.9-1.7,3.3-2.7,4.3c-1.1,1-2.2,1.5-3.5,1.5C24.7,46.9,23.5,46.4,22.5,45.3z
		 M29,41.9c0.9-1.6,1.5-3.7,2-6.6c0.5-2.8,0.7-6.1,0.7-9.9c0-3.8-0.2-7.1-0.7-9.9c-0.5-2.8-1.2-5-2-6.5c-0.9-1.5-1.9-2.3-3-2.3
		c-1.2,0-2.2,0.8-3,2.3c-0.9,1.5-1.5,3.7-2,6.5c-0.5,2.8-0.7,6.1-0.7,9.9c0,3.8,0.2,7.1,0.7,9.9c0.5,2.8,1.1,5,2,6.6
		c0.9,1.6,1.9,2.3,3,2.3C27.2,44.3,28.2,43.5,29,41.9z M23.3,28.1c-0.7-0.7-1.1-1.6-1.1-2.7c0-1,0.4-1.9,1.1-2.7
		c0.7-0.7,1.6-1.1,2.7-1.1c1,0,1.9,0.4,2.7,1.1c0.7,0.7,1.1,1.6,1.1,2.7c0,1.1-0.4,1.9-1.1,2.7c-0.7,0.7-1.6,1.1-2.7,1.1
		C25,29.2,24.1,28.9,23.3,28.1z"/>
</g>
</svg>
