<?xml version="1.0" encoding="utf-8"?>
<!-- Generator: Adobe Illustrator 27.8.1, SVG Export Plug-In . SVG Version: 6.00 Build 0)  -->
<svg version="1.1" id="Layer_1" xmlns="http://www.w3.org/2000/svg" xmlns:xlink="http://www.w3.org/1999/xlink" x="0px" y="0px"
	 viewBox="0 0 52 52" enable-background="new 0 0 52 52" xml:space="preserve">
<g>
	<path fill="#d3d3d3" d="M5.4,9.8l35.3,15.6v0.9L5.4,42.1v-6.3l17.9-7.7l5.3-2.3l-5.3-2.3L5.4,15.8L5.4,9.8 M2.9,5.9l0,11.5l19.4,8.4L2.9,34.2V46
		l40.3-18.1v-4.2L2.9,5.9L2.9,5.9z"/>
</g>
<g>
	<path fill="#d3d3d3" d="M46.6,9.8l0,6l-17.9,7.7l-5.3,2.3l5.3,2.3l17.9,7.7v6.3L11.3,26.3v-0.9L46.6,9.8 M49.1,5.9L8.8,23.7v4.2L49.1,46V34.2
		l-19.4-8.4l19.4-8.4L49.1,5.9L49.1,5.9z"/>
</g>
</svg>
