<svg xmlns="http://www.w3.org/2000/svg"  viewBox="0 0 64 64" width="64px" height="64px"><radialGradient id="b7jurXfQfqVUx5y5ovhe9a" cx="32" cy="566" r="31.017" gradientTransform="translate(0 -534)" gradientUnits="userSpaceOnUse"><stop offset="0" stop-color="#b8efff"/><stop offset=".642" stop-color="#d4f6ff"/><stop offset="1" stop-color="#e5faff"/></radialGradient><path fill="url(#b7jurXfQfqVUx5y5ovhe9a)" d="M56,52c0,1.1,0.9,2,2,2c2.33,0,4.22,2.03,3.98,4.41C61.77,60.49,59.9,62,57.81,62H4 c-2.34,0-4.22-2.03-3.98-4.41C0.23,55.51,2.1,54,4.19,54H6c1.11,0,2-0.9,2-2c0-0.55-0.22-1.05-0.58-1.41C7.06,50.22,6.56,50,6,50 c-1.65,0-3-1.35-3-3s1.35-3,3-3h16v-8H5c-2.34,0-4.22-2.03-3.98-4.41C1.23,29.51,3.1,28,5.19,28H8.5c1.93,0,3.5-1.57,3.5-3.5 S10.43,21,8.5,21H6c-2.34,0-4.22-2.03-3.98-4.41C2.23,14.51,4.1,13,6.19,13H19c0.07,0,0.15,0,0.22-0.01c0.09,0,0.19,0.01,0.28,0.01 h2c0.69,0,1.32-0.28,1.77-0.73C23.72,11.82,24,11.19,24,10.5C24,9.12,22.88,8,21.5,8H14c-1.66,0-3-1.34-3-3s1.34-3,3-3h35 c1.66,0,3,1.34,3,3s-1.34,3-3,3h-5.5c-0.69,0-1.32,0.28-1.77,0.73C41.28,9.18,41,9.81,41,10.5c0,1.38,1.12,2.5,2.5,2.5h2 c0.09,0,0.17,0,0.26-0.01c0,0,0.01,0,0.02,0C45.85,13,45.93,13,46,13h12.5c1.93,0,3.5,1.57,3.5,3.5S60.43,20,58.5,20h-9.15 C49.13,20.46,49,20.96,49,21.5c0,0.96,0.39,1.84,1.03,2.47C50.66,24.61,51.54,25,52.5,25h7.31c2.09,0,3.96,1.51,4.17,3.59 C64.22,30.97,62.33,33,60,33H42v10h18.5c1.92,0,3.5,1.58,3.5,3.5S62.42,50,60.5,50H58C56.9,50,56,50.9,56,52z"/><linearGradient id="b7jurXfQfqVUx5y5ovhe9b" x1="32" x2="32" y1="514.234" y2="591.058" gradientTransform="translate(0 -534)" gradientUnits="userSpaceOnUse"><stop offset="0" stop-color="#a4a4a4"/><stop offset=".63" stop-color="#7f7f7f"/><stop offset="1" stop-color="#6f6f6f"/><stop offset="1" stop-color="#6f6f6f"/></linearGradient><circle cx="32" cy="32" r="25" fill="url(#b7jurXfQfqVUx5y5ovhe9b)"/><radialGradient id="b7jurXfQfqVUx5y5ovhe9c" cx="32" cy="32" r="60.486" fx="81.877" fy="66.217" gradientTransform="rotate(-30 31.998 32.001)" gradientUnits="userSpaceOnUse"><stop offset=".069" stop-color="#e3e3e3"/><stop offset=".284" stop-color="#dfdfdf"/><stop offset=".479" stop-color="#d4d4d4"/><stop offset=".665" stop-color="#c2c2c2"/><stop offset=".846" stop-color="#a8a8a8"/><stop offset="1" stop-color="#8c8c8c"/></radialGradient><path fill="url(#b7jurXfQfqVUx5y5ovhe9c)" d="M42.893,28.19l0.823-0.645c0.263-0.206,0.352-0.564,0.216-0.869 c-0.136-0.305-0.462-0.478-0.791-0.42l-0.947,0.125c-0.234,0.031-0.387-0.237-0.243-0.423l0.583-0.751 c0.214-0.256,0.227-0.625,0.03-0.895c-0.196-0.27-0.551-0.372-0.861-0.246l-0.97,0.392c-0.228,0.092-0.447-0.151-0.332-0.368 l0.49-0.924c0.156-0.295,0.092-0.659-0.157-0.882c-0.248-0.223-0.617-0.249-0.893-0.062l-0.867,0.585 c-0.204,0.138-0.469-0.054-0.401-0.291l0.287-1.006c0.092-0.321-0.047-0.663-0.336-0.83c-0.289-0.167-0.655-0.115-0.887,0.125 l-0.727,0.753c-0.171,0.177-0.47,0.044-0.453-0.201l0.071-1.044c0.023-0.333-0.184-0.639-0.502-0.742 c-0.318-0.103-0.665,0.024-0.841,0.307l-0.554,0.887c-0.13,0.209-0.45,0.141-0.485-0.103L34,19.625 c-0.047-0.331-0.313-0.587-0.645-0.621c-0.332-0.035-0.645,0.161-0.759,0.475l-0.358,0.983c-0.084,0.231-0.411,0.231-0.495,0 l-0.359-0.983c-0.115-0.314-0.428-0.509-0.76-0.474c-0.332,0.035-0.598,0.292-0.644,0.622l-0.145,1.036 c-0.034,0.244-0.354,0.312-0.485,0.103l-0.556-0.886c-0.177-0.283-0.524-0.409-0.842-0.305c-0.317,0.103-0.524,0.41-0.5,0.743 l0.072,1.03c0.017,0.246-0.282,0.379-0.453,0.202l-0.718-0.742c-0.232-0.24-0.598-0.291-0.887-0.124 c-0.289,0.167-0.428,0.509-0.336,0.83l0.291,1.019c0.068,0.236-0.197,0.429-0.401,0.291l-0.879-0.591 c-0.277-0.186-0.645-0.16-0.893,0.063c-0.248,0.224-0.312,0.587-0.155,0.882l0.491,0.924c0.116,0.217-0.103,0.46-0.331,0.369 l-0.971-0.391c-0.31-0.125-0.665-0.022-0.861,0.248c-0.196,0.27-0.183,0.639,0.032,0.895l0.673,0.801 c0.158,0.188-0.005,0.472-0.247,0.429l-1.031-0.18c-0.329-0.058-0.655,0.116-0.79,0.421c-0.136,0.305-0.046,0.663,0.217,0.869 l0.825,0.644c0.194,0.151,0.093,0.462-0.153,0.471l-1.045,0.038c-0.334,0.012-0.616,0.25-0.685,0.576l0,0 c-0.069,0.327,0.093,0.658,0.393,0.805l0.94,0.458c0.221,0.108,0.187,0.433-0.051,0.493l-1.015,0.255 c-0.324,0.081-0.551,0.372-0.551,0.706c0,0.334,0.228,0.625,0.552,0.705l1.015,0.253c0.239,0.059,0.273,0.385,0.052,0.493 l-0.94,0.46c-0.3,0.147-0.461,0.479-0.392,0.805c0.07,0.327,0.353,0.564,0.686,0.575l1.046,0.036 c0.246,0.009,0.347,0.319,0.154,0.471l-0.823,0.645c-0.263,0.206-0.352,0.564-0.216,0.869c0.136,0.305,0.462,0.478,0.791,0.42 l0.933-0.127c0.232-0.032,0.388,0.233,0.246,0.42l-0.572,0.756c-0.214,0.256-0.227,0.625-0.03,0.895 c0.196,0.27,0.551,0.372,0.861,0.246l0.97-0.392c0.228-0.092,0.447,0.151,0.332,0.368l-0.49,0.924 c-0.156,0.295-0.092,0.659,0.157,0.882c0.248,0.223,0.617,0.249,0.893,0.062l0.867-0.585c0.204-0.138,0.469,0.054,0.401,0.291 l-0.287,1.006c-0.092,0.321,0.047,0.663,0.336,0.83s0.655,0.115,0.887-0.125l0.727-0.753c0.171-0.177,0.47-0.044,0.453,0.201 l-0.071,1.044c-0.023,0.333,0.184,0.639,0.502,0.742c0.318,0.103,0.665-0.024,0.841-0.307l0.554-0.887 c0.13-0.209,0.45-0.141,0.485,0.103L30,44.375c0.047,0.331,0.313,0.587,0.645,0.621c0.332,0.035,0.645-0.161,0.759-0.475 l0.358-0.983c0.084-0.231,0.411-0.231,0.496,0l0.359,0.982c0.115,0.314,0.428,0.509,0.76,0.474 c0.332-0.035,0.598-0.292,0.644-0.622l0.145-1.036c0.034-0.244,0.354-0.312,0.485-0.103l0.556,0.886 c0.177,0.283,0.524,0.409,0.842,0.305c0.317-0.103,0.524-0.41,0.5-0.743l-0.072-1.03c-0.017-0.246,0.282-0.379,0.453-0.202 l0.718,0.742c0.232,0.24,0.598,0.291,0.887,0.124c0.289-0.167,0.428-0.509,0.336-0.83l-0.291-1.019 c-0.068-0.236,0.197-0.429,0.401-0.291l0.879,0.591c0.277,0.186,0.645,0.16,0.893-0.063c0.248-0.224,0.312-0.587,0.155-0.882 l-0.491-0.924c-0.116-0.217,0.103-0.46,0.331-0.368l0.971,0.391c0.31,0.125,0.665,0.022,0.861-0.248 c0.196-0.27,0.183-0.639-0.032-0.895l-0.673-0.801c-0.158-0.188,0.005-0.472,0.247-0.429l1.031,0.18 c0.329,0.058,0.655-0.116,0.79-0.421c0.136-0.305,0.046-0.663-0.217-0.869L42.9,35.792c-0.194-0.151-0.093-0.462,0.153-0.471 l1.046-0.038c0.334-0.012,0.616-0.25,0.685-0.576l0,0c0.069-0.327-0.093-0.658-0.393-0.805l-0.94-0.458 c-0.221-0.108-0.187-0.433,0.051-0.493l1.015-0.255c0.324-0.081,0.551-0.372,0.551-0.706c0-0.334-0.228-0.625-0.552-0.705 L43.5,31.031c-0.239-0.06-0.273-0.385-0.052-0.493l0.94-0.46c0.3-0.147,0.461-0.479,0.392-0.805 c-0.07-0.327-0.353-0.564-0.686-0.575l-1.046-0.036C42.801,28.653,42.7,28.342,42.893,28.19z M31,30.268 c0.957-0.552,2.18-0.225,2.732,0.732s0.225,2.18-0.732,2.732S30.82,33.957,30.268,33C29.716,32.043,30.043,30.82,31,30.268z M23.656,36.864c-0.007-0.012-0.014-0.023-0.02-0.035c-1.778-3.079-1.665-6.728-0.024-9.609c0.949-1.666,3.371-1.639,4.329,0.022 l2.024,3.505c0.447,0.775,0.447,1.73,0,2.505L27.917,36.8C26.978,38.426,24.602,38.486,23.656,36.864z M40.295,36.938 c-0.814,1.377-1.982,2.569-3.466,3.426c-1.485,0.857-3.101,1.272-4.7,1.289c-1.95,0.02-3.194-2.071-2.219-3.76l2.023-3.504 c0.447-0.775,1.274-1.252,2.169-1.252l4.046,0C40.099,33.136,41.288,35.259,40.295,36.938z M40.384,27.206 c0.932,1.63-0.308,3.658-2.185,3.658l-4.097,0c-0.895,0-1.722-0.477-2.169-1.252l-2.024-3.505c-0.959-1.661,0.228-3.772,2.146-3.76 c3.315,0.02,6.531,1.746,8.309,4.825C40.371,27.183,40.377,27.195,40.384,27.206z"/><linearGradient id="b7jurXfQfqVUx5y5ovhe9d" x1="20.354" x2="48.276" y1="12.167" y2="59.717" gradientUnits="userSpaceOnUse"><stop offset="0" stop-color="#fff"/><stop offset="1" stop-color="#8c8c8c"/></linearGradient><path fill="url(#b7jurXfQfqVUx5y5ovhe9d)" d="M51.175,25.294l1.449-1.136c0.463-0.362,0.619-0.993,0.38-1.53 c-0.239-0.537-0.813-0.842-1.392-0.739l-1.667,0.219c-0.411,0.054-0.682-0.417-0.427-0.745l1.026-1.322 c0.377-0.451,0.399-1.1,0.053-1.576c-0.346-0.475-0.971-0.654-1.516-0.434l-1.707,0.69c-0.402,0.162-0.787-0.265-0.584-0.648 l0.862-1.627c0.275-0.519,0.162-1.159-0.276-1.552c-0.437-0.393-1.085-0.438-1.573-0.109l-1.526,1.03 c-0.359,0.242-0.825-0.096-0.706-0.512l0.505-1.771c0.161-0.565-0.083-1.167-0.592-1.461c-0.509-0.293-1.153-0.203-1.561,0.22 l-1.279,1.325c-0.301,0.312-0.827,0.078-0.797-0.354l0.126-1.837c0.04-0.586-0.324-1.125-0.883-1.306 c-0.559-0.181-1.17,0.041-1.481,0.54l-0.976,1.562c-0.229,0.367-0.792,0.248-0.853-0.181l-0.259-1.823 c-0.083-0.582-0.551-1.033-1.135-1.094c-0.584-0.061-1.136,0.284-1.336,0.836l-0.63,1.73c-0.148,0.407-0.723,0.407-0.872,0.001 l-0.632-1.729c-0.202-0.552-0.753-0.896-1.338-0.834c-0.584,0.062-1.052,0.514-1.133,1.096l-0.256,1.824 c-0.06,0.429-0.623,0.549-0.853,0.182l-0.978-1.56c-0.312-0.498-0.923-0.72-1.482-0.538c-0.559,0.182-0.922,0.721-0.881,1.307 l0.127,1.813c0.03,0.432-0.496,0.667-0.797,0.355L22.061,12.3c-0.409-0.423-1.052-0.513-1.561-0.219s-0.753,0.896-0.591,1.461 l0.513,1.793c0.119,0.416-0.346,0.754-0.705,0.513l-1.548-1.041c-0.488-0.328-1.136-0.282-1.572,0.112 c-0.436,0.394-0.549,1.034-0.273,1.553l0.865,1.626c0.203,0.382-0.181,0.81-0.583,0.649l-1.708-0.687 c-0.545-0.219-1.17-0.04-1.515,0.436c-0.345,0.476-0.322,1.125,0.056,1.575l1.184,1.41c0.278,0.332-0.009,0.83-0.436,0.756 l-1.814-0.317c-0.579-0.101-1.152,0.205-1.391,0.742c-0.239,0.537-0.081,1.168,0.382,1.529l1.451,1.133 c0.341,0.267,0.164,0.814-0.269,0.83l-1.84,0.067c-0.587,0.021-1.085,0.44-1.206,1.015l0,0c-0.122,0.575,0.164,1.159,0.692,1.417 l1.655,0.807c0.389,0.19,0.33,0.762-0.091,0.868l-1.786,0.448C9.399,30.918,9,31.431,9,32.018c0,0.588,0.401,1.1,0.971,1.242 l1.787,0.445c0.42,0.105,0.481,0.677,0.092,0.867l-1.654,0.81c-0.528,0.258-0.812,0.843-0.69,1.418 c0.123,0.575,0.621,0.992,1.208,1.013l1.84,0.064c0.433,0.015,0.611,0.562,0.27,0.829l-1.449,1.136 c-0.463,0.363-0.619,0.993-0.38,1.53s0.813,0.842,1.392,0.739l1.642-0.224c0.409-0.056,0.682,0.41,0.433,0.74l-1.007,1.332 c-0.377,0.451-0.399,1.1-0.053,1.575c0.346,0.475,0.971,0.654,1.516,0.434l1.707-0.69c0.402-0.162,0.787,0.265,0.584,0.648 l-0.862,1.627c-0.275,0.519-0.162,1.159,0.275,1.552c0.437,0.393,1.085,0.438,1.573,0.109l1.527-1.03 c0.359-0.242,0.825,0.096,0.706,0.512l-0.505,1.771c-0.161,0.565,0.083,1.168,0.592,1.461s1.153,0.203,1.561-0.22l1.279-1.325 c0.301-0.312,0.827-0.078,0.797,0.354l-0.126,1.837c-0.04,0.586,0.324,1.125,0.883,1.306c0.559,0.181,1.17-0.041,1.481-0.54 l0.976-1.562c0.229-0.367,0.792-0.248,0.853,0.181l0.259,1.823c0.083,0.582,0.551,1.033,1.135,1.094 c0.585,0.061,1.136-0.284,1.337-0.836l0.629-1.73c0.148-0.407,0.724-0.407,0.872-0.001l0.632,1.729 c0.202,0.552,0.753,0.896,1.338,0.834c0.584-0.062,1.052-0.514,1.133-1.096l0.256-1.824c0.06-0.429,0.623-0.549,0.853-0.182 l0.978,1.56c0.312,0.498,0.923,0.72,1.482,0.538c0.559-0.182,0.922-0.721,0.881-1.307l-0.127-1.813 c-0.03-0.432,0.496-0.667,0.797-0.355l1.263,1.307c0.409,0.422,1.052,0.513,1.561,0.219s0.753-0.896,0.591-1.461l-0.513-1.793 c-0.119-0.416,0.346-0.754,0.705-0.513l1.548,1.041c0.488,0.328,1.136,0.282,1.572-0.112c0.436-0.394,0.549-1.034,0.273-1.553 l-0.865-1.626c-0.203-0.382,0.181-0.81,0.583-0.649l1.708,0.687c0.545,0.219,1.17,0.04,1.515-0.436 c0.345-0.476,0.322-1.125-0.056-1.575l-1.184-1.41c-0.278-0.332,0.009-0.83,0.436-0.756l1.814,0.317 c0.579,0.101,1.152-0.205,1.391-0.742c0.239-0.537,0.081-1.168-0.382-1.529l-1.451-1.133c-0.341-0.267-0.164-0.814,0.269-0.83 l1.84-0.067c0.587-0.021,1.085-0.44,1.206-1.015l0,0c0.122-0.575-0.164-1.159-0.692-1.417l-1.655-0.807 c-0.389-0.19-0.33-0.762,0.091-0.868l1.786-0.448c0.57-0.143,0.97-0.656,0.969-1.243c0-0.588-0.401-1.1-0.971-1.242l-1.787-0.445 c-0.42-0.105-0.481-0.677-0.092-0.867l1.654-0.81c0.528-0.258,0.812-0.843,0.69-1.418c-0.123-0.575-0.621-0.992-1.208-1.013 l-1.84-0.064C51.012,26.108,50.834,25.561,51.175,25.294z M31.25,30.701c0.717-0.414,1.635-0.168,2.049,0.549 s0.168,1.635-0.549,2.049s-1.635,0.168-2.049-0.549S30.533,31.115,31.25,30.701z M18.514,42.634L17.278,40.5 c-3.635-6.297-2.779-13.947,1.568-19.259c1.316-1.608,3.865-1.33,4.904,0.47l5.068,8.778c0.54,0.936,0.54,2.088,0,3.024 l-5.264,9.118C22.434,44.568,19.637,44.571,18.514,42.634z M46.601,40.692c-1.433,2.423-3.488,4.521-6.101,6.03 s-5.458,2.239-8.273,2.269c-3.433,0.036-5.623-3.646-3.906-6.619l3.561-6.168C32.669,34.84,34.125,34,35.7,34l7.122,0 C46.255,34,48.349,37.737,46.601,40.692z M47.916,25.576C49.048,27.544,47.627,30,45.357,30L34.9,30 c-1.08,0-2.079-0.576-2.619-1.512l-5.068-8.778c-1.039-1.8-0.005-4.146,2.045-4.482c6.774-1.109,13.828,1.975,17.463,8.271 L47.916,25.576z"/></svg>