<?xml version="1.0" encoding="utf-8"?>
<!-- Generator: Adobe Illustrator 27.9.0, SVG Export Plug-In . SVG Version: 6.00 Build 0)  -->
<svg version="1.1" xmlns="http://www.w3.org/2000/svg" xmlns:xlink="http://www.w3.org/1999/xlink" x="0px" y="0px"
	 viewBox="0 0 16 16" enable-background="new 0 0 16 16" xml:space="preserve">
<g id="Layer_1" display="none">
	<g id="vzT84L.tif" display="inline">

			<image overflow="visible" width="32" height="25" id="Layer_1_00000150798822664807098360000002072727627933135499_" xlink:href="C6DF89998CD58B92.png"  transform="matrix(1 0 0 1 -1.4987 3.3048)">
		</image>
	</g>
</g>
<g id="Layer_2">
	<ellipse cx="8.1" cy="7.9" rx="2.6" ry="2.6"/>
	<path d="M16,7.8h-3.9c0,0-0.3,4.1-4.2,4c-1.7,0-2.6-0.9-2.6-0.9s-0.6-0.3-1.1,0.2c-0.5,0.6,0,1.2,0,1.2s1.1,1.2,3.8,1.2
		c4.2,0,5.3-3.8,5.3-3.8H16V7.8z"/>
	<path d="M0,7.8h3.9c0,0,0.3-4.1,4.2-4c1.7,0,2.6,0.9,2.6,0.9s0.6,0.3,1.1-0.2c0.5-0.6,0-1.2,0-1.2S10.6,2,7.9,2
		C3.7,2,2.6,5.8,2.6,5.8H0L0,7.8z"/>
</g>
</svg>
