<svg width="16" height="16" viewBox="0 0 67 67" xmlns="http://www.w3.org/2000/svg" fill="currentColor" style="fill-rule:evenodd;clip-rule:evenodd;stroke-linejoin:round;stroke-miterlimit:2;"><path d="M33.425,66.636C31.85,66.636 30.562,65.348 30.562,63.774L30.562,26.56C30.562,24.986 31.85,23.698 33.425,23.698C34.999,23.698 36.287,24.986 36.287,26.56L36.287,63.774C36.287,65.348 34.999,66.636 33.425,66.636Z" style="fill-rule:nonzero;"/><path d="M46.593,34.862C45.448,36.007 43.73,36.007 42.585,34.862L31.421,23.698C28.845,20.978 32.709,16.971 35.429,19.69L46.593,30.854C47.738,31.999 47.738,33.717 46.593,34.862Z" style="fill-rule:nonzero;"/><path d="M20.114,34.802C18.969,33.657 18.969,31.939 20.114,30.794L31.278,19.63C33.997,17.054 38.005,20.918 35.286,23.638L24.122,34.802C22.976,35.947 21.259,35.947 20.114,34.802Z" style="fill-rule:nonzero;"/><path d="M24.837,53.611L24.837,47.457C3.654,38.154 9.952,6.665 33.282,6.236C56.612,6.665 62.909,37.724 42.013,47.314L42.013,53.468C70.781,43.306 64.269,0.01 33.273,0C2.277,-0.011 -4.075,43.736 24.837,53.611Z" style="fill-rule:nonzero;"/></svg>
